<svg width="24" height="24" viewBox="0 0 24 24" fill="none" xmlns="http://www.w3.org/2000/svg">
<path d="M5.25 11.25H20.25C20.4489 11.25 20.6397 11.329 20.7803 11.4697C20.921 11.6103 21 11.8011 21 12C21 12.1989 20.921 12.3897 20.7803 12.5303C20.6397 12.671 20.4489 12.75 20.25 12.75H5.25C5.05109 12.75 4.86032 12.671 4.71967 12.5303C4.57902 12.3897 4.5 12.1989 4.5 12C4.5 11.8011 4.57902 11.6103 4.71967 11.4697C4.86032 11.329 5.05109 11.25 5.25 11.25Z" fill="black"/>
<path d="M5.56184 11.999L11.7823 18.218C11.9232 18.3588 12.0023 18.5498 12.0023 18.749C12.0023 18.9482 11.9232 19.1392 11.7823 19.28C11.6415 19.4208 11.4505 19.4999 11.2513 19.4999C11.0522 19.4999 10.8612 19.4208 10.7203 19.28L3.97034 12.53C3.9005 12.4603 3.84508 12.3776 3.80727 12.2864C3.76946 12.1953 3.75 12.0976 3.75 11.999C3.75 11.9003 3.76946 11.8027 3.80727 11.7115C3.84508 11.6204 3.9005 11.5377 3.97034 11.468L10.7203 4.71799C10.8612 4.57716 11.0522 4.49805 11.2513 4.49805C11.4505 4.49805 11.6415 4.57716 11.7823 4.71799C11.9232 4.85882 12.0023 5.04983 12.0023 5.24899C12.0023 5.44816 11.9232 5.63916 11.7823 5.77999L5.56184 11.999Z" fill="black"/>
</svg>
